<svg width="233" height="200" viewBox="0 0 233 200" xmlns="http://www.w3.org/2000/svg">
  <defs>
    <!-- TŁO: NOCNY GRADIENT ZANIKAJĄCY DO PRZEZROCZYSTOŚCI -->
    <radialGradient id="bgNight" cx="50%" cy="40%" r="55%">
      <stop offset="0%" stop-color="#0D1B2A" stop-opacity="0.9"/>
      <stop offset="40%" stop-color="#1A237E" stop-opacity="0.5"/>
      <stop offset="70%" stop-color="#283593" stop-opacity="0.2"/>
      <stop offset="100%" stop-color="#64B5F6" stop-opacity="0"/>
    </radialGradient>

    <!-- KSIĘŻYC: SREBRZYSTA POŚWIATA -->
    <radialGradient id="moonGlow" cx="50%" cy="50%" r="50%">
      <stop offset="0%" stop-color="#E3F2FD" stop-opacity="0.5"/>
      <stop offset="50%" stop-color="#90CAF9" stop-opacity="0.2"/>
      <stop offset="100%" stop-color="#1A237E" stop-opacity="0"/>
    </radialGradient>

    <linearGradient id="moonCore" x1="0" y1="0" x2="1" y2="1">
      <stop offset="0%" stop-color="#FFFFFF"/>
      <stop offset="50%" stop-color="#E3F2FD"/>
      <stop offset="100%" stop-color="#B0BEC5"/>
    </linearGradient>

    <!-- CHMURA NOCNA: CIEMNIEJSZA, SREBRZYSTO-GRANATOWA -->
    <radialGradient id="cloudNight" cx="30%" cy="25%" r="80%">
      <stop offset="0%" stop-color="#E0E7FF"/>
      <stop offset="45%" stop-color="#9FABC9"/>
      <stop offset="80%" stop-color="#5C6A92"/>
      <stop offset="100%" stop-color="#2C3A5E"/>
    </radialGradient>

    <!-- DESZCZ NOCNY: SREBRZYSTO-NIEBIESKI -->
    <linearGradient id="rainNight" x1="0" y1="0" x2="0" y2="1">
      <stop offset="0%" stop-color="#B0C4DE"/>
      <stop offset="100%" stop-color="#607D8B"/>
    </linearGradient>

    <!-- FILTRY -->
    <filter id="moonGlowFilter" x="-50%" y="-50%" width="200%" height="200%">
      <feGaussianBlur stdDeviation="6"/>
    </filter>
    <filter id="cloudShadowNight" x="-20%" y="-20%" width="140%" height="140%">
      <feDropShadow dx="0" dy="4" stdDeviation="5" flood-color="#0A1128" flood-opacity="0.6"/>
    </filter>
  </defs>

  <style>
    .bgLayerNight {
      animation: bgPulseNight 8s ease-in-out infinite;
    }
    /* Księżyc przesuwa się za chmurę */
    .moonMove {
      animation: slideBehindCloudNight 8s ease-in-out infinite alternate;
      transform-origin: 78px 70px;
    }
    .cloudMoveNight {
      animation: cloudMoveNight 5s ease-in-out infinite;
    }
    .rainDropNight {
      animation: fallNight 1.2s linear infinite;
    }
    .rd2n { animation-delay: 0.4s; }
    .rd3n { animation-delay: 0.7s; }
    .rd4n { animation-delay: 0.2s; }
    .rd5n { animation-delay: 0.9s; }
    .twinkleStar { animation: twinkle 3s ease-in-out infinite; }
    .twinkleStarSlow { animation: twinkle 5s ease-in-out infinite; }

    @keyframes bgPulseNight {
      0%,100% { opacity: 0.85; }
      50% { opacity: 1; }
    }
    @keyframes slideBehindCloudNight {
      0% { transform: translateX(0); }
      100% { transform: translateX(72px); }
    }
    @keyframes cloudMoveNight {
      0%,100% { transform: translateX(0) translateY(0); }
      50% { transform: translateX(-3px) translateY(-2px); }
    }
    @keyframes fallNight {
      0% { transform: translateY(-15px); opacity: 0; }
      30% { opacity: 0.7; }
      70% { opacity: 0.9; }
      100% { transform: translateY(38px); opacity: 0; }
    }
    @keyframes twinkle {
      0%,100% { opacity: 0.2; transform: scale(0.8); }
      50% { opacity: 1; transform: scale(1.2); }
    }
  </style>

  <!-- TŁO NOCNE (PRZEZROCZYSTE NA KRAWĘDZIACH) -->
  <rect width="233" height="200" fill="url(#bgNight)" class="bgLayerNight"/>

  <!-- GWIAZDY -->
  <g fill="#FFFFFF">
    <circle cx="25" cy="30" r="1.2" class="twinkleStar" style="animation-delay: 0s"/>
    <circle cx="60" cy="15" r="0.8" class="twinkleStarSlow" style="animation-delay: 0.5s"/>
    <circle cx="100" cy="45" r="1" class="twinkleStar" style="animation-delay: 1.2s"/>
    <circle cx="160" cy="20" r="1.3" class="twinkleStar" style="animation-delay: 2s"/>
    <circle cx="210" cy="30" r="0.9" class="twinkleStarSlow" style="animation-delay: 0.8s"/>
    <circle cx="195" cy="65" r="1.1" class="twinkleStar" style="animation-delay: 1.5s"/>
    <circle cx="35" cy="80" r="0.7" class="twinkleStar" style="animation-delay: 2.5s"/>
    <circle cx="15" cy="130" r="1" class="twinkleStarSlow" style="animation-delay: 0.3s"/>
    <circle cx="50" cy="170" r="0.9" class="twinkleStar" style="animation-delay: 1.8s"/>
    <circle cx="90" cy="185" r="1.2" class="twinkleStar" style="animation-delay: 2.2s"/>
    <circle cx="140" cy="170" r="0.8" class="twinkleStarSlow" style="animation-delay: 0.6s"/>
    <circle cx="180" cy="185" r="1" class="twinkleStar" style="animation-delay: 1.1s"/>
    <circle cx="215" cy="140" r="1.3" class="twinkleStar" style="animation-delay: 2.8s"/>
    <circle cx="175" cy="105" r="0.9" class="twinkleStarSlow" style="animation-delay: 1.4s"/>
    <circle cx="55" cy="105" r="0.6" class="twinkleStar" style="animation-delay: 3s"/>
    <circle cx="135" cy="55" r="1.1" class="twinkleStar" style="animation-delay: 0.9s"/>
    <circle cx="80" cy="65" r="0.8" class="twinkleStarSlow" style="animation-delay: 1.7s"/>
    <circle cx="200" cy="95" r="0.7" class="twinkleStar" style="animation-delay: 2.3s"/>
  </g>

  <!-- KSIĘŻYC – RUCHOMY, CHOWA SIĘ ZA CHMURĄ -->
  <g class="moonMove">
    <!-- Poświata -->
    <circle cx="78" cy="70" r="40" fill="url(#moonGlow)" filter="url(#moonGlowFilter)"/>
    <!-- Tarcza księżyca -->
    <circle cx="78" cy="70" r="26" fill="url(#moonCore)" filter="url(#moonGlowFilter)" opacity="0.95"/>
    <circle cx="78" cy="70" r="22" fill="url(#moonCore)"/>
    <!-- Kratery -->
    <circle cx="72" cy="64" r="4" fill="#CFD8DC" opacity="0.35"/>
    <circle cx="86" cy="76" r="3.5" fill="#CFD8DC" opacity="0.3"/>
    <circle cx="74" cy="80" r="2.5" fill="#CFD8DC" opacity="0.4"/>
    <!-- Odblaski -->
    <circle cx="70" cy="62" r="3" fill="#FFFFFF" opacity="0.7"/>
    <circle cx="86" cy="74" r="2" fill="#FFFFFF" opacity="0.5"/>
    <circle cx="72" cy="80" r="1.5" fill="#FFFFFF" opacity="0.4"/>
  </g>

  <!-- CHMURA NOCNA – JEDEN KSZTAŁT -->
  <path class="cloudMoveNight" filter="url(#cloudShadowNight)"
        d="M 50,115 
           C 50,95 70,85 85,90 
           C 95,70 125,65 140,80 
           C 155,75 175,85 180,105 
           C 195,105 200,115 195,125 
           C 190,135 170,135 160,130 
           L 70,130 
           C 55,130 45,125 50,115 Z"
        fill="url(#cloudNight)"/>

  <!-- KROPLE NOCNEGO DESZCZU -->
  <g>
    <path class="rainDropNight" d="M85 135 C85 135 81 142 81 145 C81 148 83 150 85 150 C87 150 89 148 89 145 C89 142 85 135 85 135Z" fill="url(#rainNight)"/>
    <path class="rainDropNight rd2n" d="M115 140 C115 140 111 147 111 150 C111 153 113 155 115 155 C117 155 119 153 119 150 C119 147 115 140 115 140Z" fill="url(#rainNight)"/>
    <path class="rainDropNight rd3n" d="M145 132 C145 132 141 139 141 142 C141 145 143 147 145 147 C147 147 149 145 149 142 C149 139 145 132 145 132Z" fill="url(#rainNight)"/>
    <path class="rainDropNight rd4n" d="M65 148 C65 148 61 155 61 158 C61 161 63 163 65 163 C67 163 69 161 69 158 C69 155 65 148 65 148Z" fill="url(#rainNight)"/>
    <path class="rainDropNight rd5n" d="M155 145 C155 145 151 152 151 155 C151 158 153 160 155 160 C157 160 159 158 159 155 C159 152 155 145 155 145Z" fill="url(#rainNight)"/>
  </g>

  <!-- WILGOTNE ODBLYSKI NA DOLE (NOCNE) -->
  <ellipse cx="115" cy="186" rx="70" ry="5" fill="#90CAF9" opacity="0.15" filter="url(#moonGlowFilter)"/>
</svg>