<svg width="233" height="200" viewBox="0 0 233 200" xmlns="http://www.w3.org/2000/svg">
  <defs>
    <!-- TŁO: NOCNY BURZOWY GRADIENT ZANIKAJĄCY -->
    <radialGradient id="bgNight" cx="50%" cy="40%" r="55%">
      <stop offset="0%" stop-color="#0D1B2A" stop-opacity="0.9"/>
      <stop offset="40%" stop-color="#1A237E" stop-opacity="0.6"/>
      <stop offset="70%" stop-color="#283593" stop-opacity="0.3"/>
      <stop offset="100%" stop-color="#64B5F6" stop-opacity="0"/>
    </radialGradient>

    <!-- CHMURA NOCNA: CIEMNA, ZIMOWA, GRANATOWA -->
    <radialGradient id="cloudNight" cx="30%" cy="25%" r="80%">
      <stop offset="0%" stop-color="#5A6A82"/>
      <stop offset="45%" stop-color="#3A4A62"/>
      <stop offset="80%" stop-color="#2A3A52"/>
      <stop offset="100%" stop-color="#1A2A3A"/>
    </radialGradient>

    <!-- PŁATEK ŚNIEGU NOCNY -->
    <radialGradient id="snowDotNight" cx="40%" cy="40%" r="60%">
      <stop offset="0%" stop-color="#FFFFFF" stop-opacity="1"/>
      <stop offset="100%" stop-color="#A0C8F0" stop-opacity="0.4"/>
    </radialGradient>

    <!-- SMUGA ŚNIEŻNA NOCNA – DLA POZIOMYCH PODMICHÓW -->
    <linearGradient id="streakGradNight" x1="0" y1="0" x2="1" y2="0">
      <stop offset="0%" stop-color="#FFFFFF" stop-opacity="0.8"/>
      <stop offset="30%" stop-color="#D0E8FF" stop-opacity="0.6"/>
      <stop offset="70%" stop-color="#B0D0F0" stop-opacity="0.4"/>
      <stop offset="100%" stop-color="#FFFFFF" stop-opacity="0"/>
    </linearGradient>

    <!-- FILTRY -->
    <filter id="cloudShadowNight" x="-20%" y="-20%" width="140%" height="140%">
      <feDropShadow dx="0" dy="4" stdDeviation="6" flood-color="#0A1128" flood-opacity="0.7"/>
    </filter>
    <filter id="snowGlowNight" x="-50%" y="-50%" width="200%" height="200%">
      <feGaussianBlur stdDeviation="0.8"/>
    </filter>
    <filter id="motionBlurNight" x="-50%" y="-50%" width="200%" height="200%">
      <feGaussianBlur stdDeviation="0 3"/>
    </filter>
    <filter id="heavyBlurNight" x="-50%" y="-50%" width="200%" height="200%">
      <feGaussianBlur stdDeviation="1.5 4"/>
    </filter>
  </defs>

  <style>
    .bgLayerNight { animation: bgPulseNight 4s ease-in-out infinite; }
    .cloudMoveNight { animation: cloudFloatNight 5s ease-in-out infinite; }
    
    /* Szybkie smugi poziome (podmuchy) nocne */
    .streakFastNight {
      animation: streakHorizontalNight 0.8s linear infinite;
      filter: url(#motionBlurNight);
    }
    /* Wolniejsze smugi nocne */
    .streakSlowNight {
      animation: streakHorizontalNight 1.4s linear infinite;
      filter: url(#heavyBlurNight);
    }
    /* Płatki śniegu – wirowane i unoszone */
    .flurryNight {
      animation: snowBlowNight 2.0s ease-in-out infinite;
    }
    /* Dodatkowe drobne płatki */
    .dustNight {
      animation: dustBlowNight 1.6s ease-in-out infinite;
    }
    
    /* GWIAZDY */
    .twinkleStar { animation: twinkle 3s ease-in-out infinite; }
    .twinkleStarSlow { animation: twinkle 5s ease-in-out infinite; }
    
    /* Opóźnienia dla smug (40 smug) – zachowane oryginalne klasy */
    .st1 { animation-delay: 0.00s; }
    .st2 { animation-delay: 0.03s; }
    .st3 { animation-delay: 0.06s; }
    .st4 { animation-delay: 0.09s; }
    .st5 { animation-delay: 0.12s; }
    .st6 { animation-delay: 0.15s; }
    .st7 { animation-delay: 0.18s; }
    .st8 { animation-delay: 0.21s; }
    .st9 { animation-delay: 0.24s; }
    .st10 { animation-delay: 0.27s; }
    .st11 { animation-delay: 0.30s; }
    .st12 { animation-delay: 0.33s; }
    .st13 { animation-delay: 0.36s; }
    .st14 { animation-delay: 0.39s; }
    .st15 { animation-delay: 0.42s; }
    .st16 { animation-delay: 0.45s; }
    .st17 { animation-delay: 0.48s; }
    .st18 { animation-delay: 0.51s; }
    .st19 { animation-delay: 0.54s; }
    .st20 { animation-delay: 0.57s; }
    .st21 { animation-delay: 0.01s; }
    .st22 { animation-delay: 0.04s; }
    .st23 { animation-delay: 0.07s; }
    .st24 { animation-delay: 0.10s; }
    .st25 { animation-delay: 0.13s; }
    .st26 { animation-delay: 0.16s; }
    .st27 { animation-delay: 0.19s; }
    .st28 { animation-delay: 0.22s; }
    .st29 { animation-delay: 0.25s; }
    .st30 { animation-delay: 0.28s; }
    .st31 { animation-delay: 0.31s; }
    .st32 { animation-delay: 0.34s; }
    .st33 { animation-delay: 0.37s; }
    .st34 { animation-delay: 0.40s; }
    .st35 { animation-delay: 0.43s; }
    .st36 { animation-delay: 0.46s; }
    .st37 { animation-delay: 0.49s; }
    .st38 { animation-delay: 0.52s; }
    .st39 { animation-delay: 0.55s; }
    .st40 { animation-delay: 0.58s; }
    
    /* Opóźnienia dla płatków (50 sztuk) */
    .f1 { animation-delay: 0.00s; }
    .f2 { animation-delay: 0.10s; }
    .f3 { animation-delay: 0.20s; }
    .f4 { animation-delay: 0.30s; }
    .f5 { animation-delay: 0.40s; }
    .f6 { animation-delay: 0.50s; }
    .f7 { animation-delay: 0.60s; }
    .f8 { animation-delay: 0.70s; }
    .f9 { animation-delay: 0.80s; }
    .f10 { animation-delay: 0.90s; }
    .f11 { animation-delay: 1.00s; }
    .f12 { animation-delay: 1.10s; }
    .f13 { animation-delay: 1.20s; }
    .f14 { animation-delay: 1.30s; }
    .f15 { animation-delay: 1.40s; }
    .f16 { animation-delay: 1.50s; }
    .f17 { animation-delay: 1.60s; }
    .f18 { animation-delay: 1.70s; }
    .f19 { animation-delay: 1.80s; }
    .f20 { animation-delay: 1.90s; }
    .f21 { animation-delay: 0.05s; }
    .f22 { animation-delay: 0.15s; }
    .f23 { animation-delay: 0.25s; }
    .f24 { animation-delay: 0.35s; }
    .f25 { animation-delay: 0.45s; }
    .f26 { animation-delay: 0.55s; }
    .f27 { animation-delay: 0.65s; }
    .f28 { animation-delay: 0.75s; }
    .f29 { animation-delay: 0.85s; }
    .f30 { animation-delay: 0.95s; }
    .f31 { animation-delay: 1.05s; }
    .f32 { animation-delay: 1.15s; }
    .f33 { animation-delay: 1.25s; }
    .f34 { animation-delay: 1.35s; }
    .f35 { animation-delay: 1.45s; }
    .f36 { animation-delay: 1.55s; }
    .f37 { animation-delay: 1.65s; }
    .f38 { animation-delay: 1.75s; }
    .f39 { animation-delay: 1.85s; }
    .f40 { animation-delay: 1.95s; }
    
    /* Dodatkowe dla pyłu */
    .dust1 { animation-delay: 0.02s; }
    .dust2 { animation-delay: 0.08s; }
    .dust3 { animation-delay: 0.14s; }
    .dust4 { animation-delay: 0.20s; }
    .dust5 { animation-delay: 0.26s; }
    .dust6 { animation-delay: 0.32s; }
    .dust7 { animation-delay: 0.38s; }
    .dust8 { animation-delay: 0.44s; }
    .dust9 { animation-delay: 0.50s; }
    .dust10 { animation-delay: 0.56s; }

    @keyframes bgPulseNight {
      0%,100% { opacity: 0.85; }
      50% { opacity: 1; }
    }
    @keyframes cloudFloatNight {
      0%,100% { transform: translateX(0) translateY(0); }
      50% { transform: translateX(-6px) translateY(-4px); }
    }
    @keyframes streakHorizontalNight {
      0% { transform: translateX(80px) translateY(-10px); opacity: 0; }
      20% { opacity: 0.8; }
      80% { opacity: 0.5; }
      100% { transform: translateX(-120px) translateY(20px); opacity: 0; }
    }
    @keyframes snowBlowNight {
      0% { transform: translateX(50px) translateY(-30px) rotate(0deg); opacity: 0; }
      25% { opacity: 0.8; }
      75% { opacity: 0.5; }
      100% { transform: translateX(-70px) translateY(50px) rotate(720deg); opacity: 0; }
    }
    @keyframes dustBlowNight {
      0% { transform: translateX(30px) translateY(-15px); opacity: 0; }
      20% { opacity: 0.7; }
      80% { opacity: 0.4; }
      100% { transform: translateX(-80px) translateY(40px); opacity: 0; }
    }
    @keyframes twinkle {
      0%,100% { opacity: 0.2; transform: scale(0.8); }
      50% { opacity: 1; transform: scale(1.2); }
    }
  </style>

  <!-- TŁO NOCNE -->
  <rect width="233" height="200" fill="url(#bgNight)" class="bgLayerNight"/>

  <!-- GWIAZDY -->
  <g fill="#FFFFFF">
    <circle cx="25" cy="30" r="1.2" class="twinkleStar" style="animation-delay: 0s"/>
    <circle cx="60" cy="15" r="0.8" class="twinkleStarSlow" style="animation-delay: 0.5s"/>
    <circle cx="100" cy="45" r="1" class="twinkleStar" style="animation-delay: 1.2s"/>
    <circle cx="160" cy="20" r="1.3" class="twinkleStar" style="animation-delay: 2s"/>
    <circle cx="210" cy="30" r="0.9" class="twinkleStarSlow" style="animation-delay: 0.8s"/>
    <circle cx="195" cy="65" r="1.1" class="twinkleStar" style="animation-delay: 1.5s"/>
    <circle cx="35" cy="80" r="0.7" class="twinkleStar" style="animation-delay: 2.5s"/>
    <circle cx="15" cy="130" r="1" class="twinkleStarSlow" style="animation-delay: 0.3s"/>
    <circle cx="50" cy="170" r="0.9" class="twinkleStar" style="animation-delay: 1.8s"/>
    <circle cx="90" cy="185" r="1.2" class="twinkleStar" style="animation-delay: 2.2s"/>
    <circle cx="140" cy="170" r="0.8" class="twinkleStarSlow" style="animation-delay: 0.6s"/>
    <circle cx="180" cy="185" r="1" class="twinkleStar" style="animation-delay: 1.1s"/>
    <circle cx="215" cy="140" r="1.3" class="twinkleStar" style="animation-delay: 2.8s"/>
    <circle cx="175" cy="105" r="0.9" class="twinkleStarSlow" style="animation-delay: 1.4s"/>
    <circle cx="55" cy="105" r="0.6" class="twinkleStar" style="animation-delay: 3s"/>
    <circle cx="135" cy="55" r="1.1" class="twinkleStar" style="animation-delay: 0.9s"/>
    <circle cx="80" cy="65" r="0.8" class="twinkleStarSlow" style="animation-delay: 1.7s"/>
    <circle cx="200" cy="95" r="0.7" class="twinkleStar" style="animation-delay: 2.3s"/>
  </g>

  <!-- CHMURA NOCNA -->
  <g class="cloudMoveNight" filter="url(#cloudShadowNight)">
    <path d="M 40,115 C 40,95 60,82 78,88 C 88,68 120,60 138,75 C 152,68 175,76 182,96 C 198,98 205,110 198,124 C 192,136 170,138 158,132 L 65,134 C 48,136 38,130 40,115 Z" fill="url(#cloudNight)"/>
    <path d="M 70,105 C 80,88 105,82 125,90 C 135,85 152,90 158,104 C 165,100 175,106 172,118 C 168,126 148,128 135,124 L 85,126 C 73,127 66,120 70,105 Z" fill="#D0D8F0" opacity="0.08"/>
  </g>

  <!-- SMUGI POZIOME NOCNE (40 sztuk) -->
  <g>
    <!-- Szybkie smugi (cieńsze, szybsze) -->
    <rect class="streakFastNight st1" x="0" y="130" width="25" height="2" fill="url(#streakGradNight)" transform="rotate(-5, 12, 131)"/>
    <rect class="streakFastNight st2" x="10" y="140" width="30" height="2" fill="url(#streakGradNight)" transform="rotate(-8, 25, 141)"/>
    <rect class="streakFastNight st3" x="30" y="125" width="22" height="2" fill="url(#streakGradNight)" transform="rotate(-3, 41, 126)"/>
    <rect class="streakFastNight st4" x="50" y="145" width="28" height="2" fill="url(#streakGradNight)" transform="rotate(-10, 64, 146)"/>
    <rect class="streakFastNight st5" x="70" y="135" width="26" height="2" fill="url(#streakGradNight)" transform="rotate(-6, 83, 136)"/>
    <rect class="streakFastNight st6" x="90" y="150" width="32" height="2" fill="url(#streakGradNight)" transform="rotate(-12, 106, 151)"/>
    <rect class="streakFastNight st7" x="110" y="128" width="24" height="2" fill="url(#streakGradNight)" transform="rotate(-4, 122, 129)"/>
    <rect class="streakFastNight st8" x="130" y="142" width="30" height="2" fill="url(#streakGradNight)" transform="rotate(-7, 145, 143)"/>
    <rect class="streakFastNight st9" x="150" y="138" width="28" height="2" fill="url(#streakGradNight)" transform="rotate(-9, 164, 139)"/>
    <rect class="streakFastNight st10" x="170" y="155" width="26" height="2" fill="url(#streakGradNight)" transform="rotate(-11, 183, 156)"/>

    <rect class="streakFastNight st11" x="5" y="160" width="30" height="2" fill="url(#streakGradNight)" transform="rotate(-7, 20, 161)"/>
    <rect class="streakFastNight st12" x="25" y="165" width="28" height="2" fill="url(#streakGradNight)" transform="rotate(-5, 39, 166)"/>
    <rect class="streakFastNight st13" x="45" y="155" width="32" height="2" fill="url(#streakGradNight)" transform="rotate(-10, 61, 156)"/>
    <rect class="streakFastNight st14" x="65" y="170" width="26" height="2" fill="url(#streakGradNight)" transform="rotate(-8, 78, 171)"/>
    <rect class="streakFastNight st15" x="85" y="175" width="30" height="2" fill="url(#streakGradNight)" transform="rotate(-6, 100, 176)"/>
    <rect class="streakFastNight st16" x="105" y="165" width="28" height="2" fill="url(#streakGradNight)" transform="rotate(-12, 119, 166)"/>
    <rect class="streakFastNight st17" x="125" y="180" width="32" height="2" fill="url(#streakGradNight)" transform="rotate(-9, 141, 181)"/>
    <rect class="streakFastNight st18" x="145" y="172" width="26" height="2" fill="url(#streakGradNight)" transform="rotate(-4, 158, 173)"/>
    <rect class="streakFastNight st19" x="165" y="185" width="30" height="2" fill="url(#streakGradNight)" transform="rotate(-11, 180, 186)"/>
    <rect class="streakFastNight st20" x="185" y="168" width="28" height="2" fill="url(#streakGradNight)" transform="rotate(-7, 199, 169)"/>

    <!-- Wolniejsze smugi (grubsze) -->
    <rect class="streakSlowNight st21" x="0" y="135" width="35" height="3" fill="url(#streakGradNight)" transform="rotate(-6, 17, 136)"/>
    <rect class="streakSlowNight st22" x="20" y="148" width="40" height="3" fill="url(#streakGradNight)" transform="rotate(-9, 40, 149)"/>
    <rect class="streakSlowNight st23" x="40" y="132" width="30" height="3" fill="url(#streakGradNight)" transform="rotate(-4, 55, 133)"/>
    <rect class="streakSlowNight st24" x="60" y="158" width="38" height="3" fill="url(#streakGradNight)" transform="rotate(-11, 79, 159)"/>
    <rect class="streakSlowNight st25" x="80" y="140" width="35" height="3" fill="url(#streakGradNight)" transform="rotate(-7, 97, 141)"/>
    <rect class="streakSlowNight st26" x="100" y="162" width="40" height="3" fill="url(#streakGradNight)" transform="rotate(-10, 120, 163)"/>
    <rect class="streakSlowNight st27" x="120" y="146" width="32" height="3" fill="url(#streakGradNight)" transform="rotate(-5, 136, 147)"/>
    <rect class="streakSlowNight st28" x="140" y="168" width="38" height="3" fill="url(#streakGradNight)" transform="rotate(-8, 159, 169)"/>
    <rect class="streakSlowNight st29" x="160" y="152" width="35" height="3" fill="url(#streakGradNight)" transform="rotate(-12, 177, 153)"/>
    <rect class="streakSlowNight st30" x="180" y="178" width="40" height="3" fill="url(#streakGradNight)" transform="rotate(-9, 200, 179)"/>

    <rect class="streakSlowNight st31" x="8" y="190" width="35" height="3" fill="url(#streakGradNight)" transform="rotate(-6, 25, 191)"/>
    <rect class="streakSlowNight st32" x="28" y="195" width="40" height="3" fill="url(#streakGradNight)" transform="rotate(-8, 48, 196)"/>
    <rect class="streakSlowNight st33" x="48" y="185" width="32" height="3" fill="url(#streakGradNight)" transform="rotate(-10, 64, 186)"/>
    <rect class="streakSlowNight st34" x="68" y="198" width="38" height="3" fill="url(#streakGradNight)" transform="rotate(-7, 87, 199)"/>
    <rect class="streakSlowNight st35" x="88" y="192" width="35" height="3" fill="url(#streakGradNight)" transform="rotate(-9, 105, 193)"/>
    <rect class="streakSlowNight st36" x="108" y="188" width="40" height="3" fill="url(#streakGradNight)" transform="rotate(-5, 128, 189)"/>
    <rect class="streakSlowNight st37" x="128" y="196" width="32" height="3" fill="url(#streakGradNight)" transform="rotate(-11, 144, 197)"/>
    <rect class="streakSlowNight st38" x="148" y="190" width="38" height="3" fill="url(#streakGradNight)" transform="rotate(-8, 167, 191)"/>
    <rect class="streakSlowNight st39" x="168" y="198" width="35" height="3" fill="url(#streakGradNight)" transform="rotate(-6, 185, 199)"/>
    <rect class="streakSlowNight st40" x="188" y="185" width="40" height="3" fill="url(#streakGradNight)" transform="rotate(-10, 208, 186)"/>
  </g>

  <!-- PŁATKI NOCNEGO ŚNIEGU (50 sztuk) -->
  <g filter="url(#snowGlowNight)">
    <circle class="flurryNight f1" cx="20" cy="130" r="2.5" fill="url(#snowDotNight)"/>
    <circle class="flurryNight f2" cx="45" cy="145" r="2" fill="url(#snowDotNight)"/>
    <circle class="flurryNight f3" cx="70" cy="125" r="3" fill="url(#snowDotNight)"/>
    <circle class="flurryNight f4" cx="95" cy="140" r="2" fill="url(#snowDotNight)"/>
    <circle class="flurryNight f5" cx="120" cy="135" r="2.5" fill="url(#snowDotNight)"/>
    <circle class="flurryNight f6" cx="145" cy="150" r="2" fill="url(#snowDotNight)"/>
    <circle class="flurryNight f7" cx="170" cy="128" r="3" fill="url(#snowDotNight)"/>
    <circle class="flurryNight f8" cx="195" cy="142" r="2" fill="url(#snowDotNight)"/>
    <circle class="flurryNight f9" cx="35" cy="160" r="2.5" fill="url(#snowDotNight)"/>
    <circle class="flurryNight f10" cx="60" cy="170" r="2" fill="url(#snowDotNight)"/>
    <circle class="flurryNight f11" cx="85" cy="155" r="3" fill="url(#snowDotNight)"/>
    <circle class="flurryNight f12" cx="110" cy="165" r="2" fill="url(#snowDotNight)"/>
    <circle class="flurryNight f13" cx="135" cy="175" r="2.5" fill="url(#snowDotNight)"/>
    <circle class="flurryNight f14" cx="160" cy="160" r="2" fill="url(#snowDotNight)"/>
    <circle class="flurryNight f15" cx="185" cy="180" r="3" fill="url(#snowDotNight)"/>
    <circle class="flurryNight f16" cx="15" cy="175" r="2" fill="url(#snowDotNight)"/>
    <circle class="flurryNight f17" cx="40" cy="185" r="2.5" fill="url(#snowDotNight)"/>
    <circle class="flurryNight f18" cx="65" cy="190" r="2" fill="url(#snowDotNight)"/>
    <circle class="flurryNight f19" cx="90" cy="182" r="3" fill="url(#snowDotNight)"/>
    <circle class="flurryNight f20" cx="115" cy="195" r="2" fill="url(#snowDotNight)"/>
    <circle class="flurryNight f21" cx="140" cy="188" r="2.5" fill="url(#snowDotNight)"/>
    <circle class="flurryNight f22" cx="165" cy="192" r="2" fill="url(#snowDotNight)"/>
    <circle class="flurryNight f23" cx="190" cy="198" r="3" fill="url(#snowDotNight)"/>
    <circle class="flurryNight f24" cx="25" cy="198" r="2" fill="url(#snowDotNight)"/>
    <circle class="flurryNight f25" cx="50" cy="195" r="2.5" fill="url(#snowDotNight)"/>
    <circle class="flurryNight f26" cx="75" cy="198" r="2" fill="url(#snowDotNight)"/>
    <circle class="flurryNight f27" cx="100" cy="190" r="3" fill="url(#snowDotNight)"/>
    <circle class="flurryNight f28" cx="125" cy="198" r="2" fill="url(#snowDotNight)"/>
    <circle class="flurryNight f29" cx="150" cy="195" r="2.5" fill="url(#snowDotNight)"/>
    <circle class="flurryNight f30" cx="175" cy="198" r="2" fill="url(#snowDotNight)"/>
    
    <!-- Dodatkowe płatki dla większego zagęszczenia -->
    <circle class="dustNight dust1" cx="10" cy="132" r="1.5" fill="url(#snowDotNight)"/>
    <circle class="dustNight dust2" cx="35" cy="138" r="1.5" fill="url(#snowDotNight)"/>
    <circle class="dustNight dust3" cx="60" cy="142" r="1.5" fill="url(#snowDotNight)"/>
    <circle class="dustNight dust4" cx="85" cy="148" r="1.5" fill="url(#snowDotNight)"/>
    <circle class="dustNight dust5" cx="110" cy="152" r="1.5" fill="url(#snowDotNight)"/>
    <circle class="dustNight dust6" cx="135" cy="158" r="1.5" fill="url(#snowDotNight)"/>
    <circle class="dustNight dust7" cx="160" cy="162" r="1.5" fill="url(#snowDotNight)"/>
    <circle class="dustNight dust8" cx="185" cy="168" r="1.5" fill="url(#snowDotNight)"/>
    <circle class="dustNight dust9" cx="30" cy="178" r="1.5" fill="url(#snowDotNight)"/>
    <circle class="dustNight dust10" cx="80" cy="188" r="1.5" fill="url(#snowDotNight)"/>
  </g>

  <!-- ROZPYLONA ZAMIEĆ NOCNA PRZY PODŁOŻU -->
  <ellipse cx="115" cy="190" rx="110" ry="10" fill="#90CAF9" opacity="0.15" filter="url(#heavyBlurNight)"/>
  <ellipse cx="115" cy="196" rx="80" ry="6" fill="#B0D0F0" opacity="0.1" filter="url(#heavyBlurNight)"/>
</svg>