<svg width="233" height="200" viewBox="0 0 233 200" xmlns="http://www.w3.org/2000/svg">
  <defs>
    <!-- TŁO: NOCNY RADIALNY GRADIENT ZANIKAJĄCY DO PRZEZROCZYSTOŚCI -->
    <radialGradient id="bgNight" cx="50%" cy="40%" r="55%">
      <stop offset="0%" stop-color="#0D1B2A" stop-opacity="0.9"/>
      <stop offset="40%" stop-color="#1A237E" stop-opacity="0.5"/>
      <stop offset="70%" stop-color="#283593" stop-opacity="0.2"/>
      <stop offset="100%" stop-color="#64B5F6" stop-opacity="0"/>
    </radialGradient>

    <!-- CHMURA NOCNA: CIEMNIEJSZA, SREBRZYSTO-GRANATOWA -->
    <radialGradient id="cloudNight" cx="30%" cy="25%" r="80%">
      <stop offset="0%" stop-color="#E0E7FF"/>
      <stop offset="45%" stop-color="#9FABC9"/>
      <stop offset="80%" stop-color="#5C6A92"/>
      <stop offset="100%" stop-color="#2C3A5E"/>
    </radialGradient>

    <!-- DESZCZ NOCNY: SREBRZYSTO-NIEBIESKI -->
    <linearGradient id="rainNight" x1="0" y1="0" x2="0" y2="1">
      <stop offset="0%" stop-color="#B0C4DE"/>
      <stop offset="100%" stop-color="#607D8B"/>
    </linearGradient>

    <!-- FILTRY -->
    <filter id="cloudShadowNight" x="-20%" y="-20%" width="140%" height="140%">
      <feDropShadow dx="0" dy="4" stdDeviation="5" flood-color="#0A1128" flood-opacity="0.6"/>
    </filter>
  </defs>

  <style>
    .bgLayerNight {
      animation: bgPulseNight 8s ease-in-out infinite;
    }
    .cloudMoveNight {
      animation: cloudMoveNight 5s ease-in-out infinite;
    }
    .rainDropNight {
      animation: fallLightNight 3s linear infinite;
    }
    .twinkleStar { animation: twinkle 3s ease-in-out infinite; }
    .twinkleStarSlow { animation: twinkle 5s ease-in-out infinite; }
    
    /* Opóźnienia dla kropel – rzadkie, "od czasu do czasu" */
    .d1 { animation-delay: 0s; }
    .d2 { animation-delay: 1.2s; }
    .d3 { animation-delay: 2.4s; }
    .d4 { animation-delay: 0.8s; }
    .d5 { animation-delay: 2.0s; }
    .d6 { animation-delay: 3.2s; }

    @keyframes bgPulseNight {
      0%,100% { opacity: 0.85; }
      50% { opacity: 1; }
    }
    @keyframes cloudMoveNight {
      0%,100% { transform: translateX(0) translateY(0); }
      50% { transform: translateX(-3px) translateY(-2px); }
    }
    @keyframes fallLightNight {
      0% { transform: translateY(-25px); opacity: 0; }
      20% { opacity: 0.7; }
      80% { opacity: 0.6; }
      100% { transform: translateY(50px); opacity: 0; }
    }
    @keyframes twinkle {
      0%,100% { opacity: 0.2; transform: scale(0.8); }
      50% { opacity: 1; transform: scale(1.2); }
    }
  </style>

  <!-- TŁO NOCNE -->
  <rect width="233" height="200" fill="url(#bgNight)" class="bgLayerNight"/>

  <!-- GWIAZDY -->
  <g fill="#FFFFFF">
    <circle cx="25" cy="30" r="1.2" class="twinkleStar" style="animation-delay: 0s"/>
    <circle cx="60" cy="15" r="0.8" class="twinkleStarSlow" style="animation-delay: 0.5s"/>
    <circle cx="100" cy="45" r="1" class="twinkleStar" style="animation-delay: 1.2s"/>
    <circle cx="160" cy="20" r="1.3" class="twinkleStar" style="animation-delay: 2s"/>
    <circle cx="210" cy="30" r="0.9" class="twinkleStarSlow" style="animation-delay: 0.8s"/>
    <circle cx="195" cy="65" r="1.1" class="twinkleStar" style="animation-delay: 1.5s"/>
    <circle cx="35" cy="80" r="0.7" class="twinkleStar" style="animation-delay: 2.5s"/>
    <circle cx="15" cy="130" r="1" class="twinkleStarSlow" style="animation-delay: 0.3s"/>
    <circle cx="50" cy="170" r="0.9" class="twinkleStar" style="animation-delay: 1.8s"/>
    <circle cx="90" cy="185" r="1.2" class="twinkleStar" style="animation-delay: 2.2s"/>
    <circle cx="140" cy="170" r="0.8" class="twinkleStarSlow" style="animation-delay: 0.6s"/>
    <circle cx="180" cy="185" r="1" class="twinkleStar" style="animation-delay: 1.1s"/>
    <circle cx="215" cy="140" r="1.3" class="twinkleStar" style="animation-delay: 2.8s"/>
    <circle cx="175" cy="105" r="0.9" class="twinkleStarSlow" style="animation-delay: 1.4s"/>
    <circle cx="55" cy="105" r="0.6" class="twinkleStar" style="animation-delay: 3s"/>
    <circle cx="135" cy="55" r="1.1" class="twinkleStar" style="animation-delay: 0.9s"/>
    <circle cx="80" cy="65" r="0.8" class="twinkleStarSlow" style="animation-delay: 1.7s"/>
    <circle cx="200" cy="95" r="0.7" class="twinkleStar" style="animation-delay: 2.3s"/>
  </g>

  <!-- CHMURA NOCNA -->
  <path class="cloudMoveNight" filter="url(#cloudShadowNight)"
        d="M 50,115 
           C 50,95 70,85 85,90 
           C 95,70 125,65 140,80 
           C 155,75 175,85 180,105 
           C 195,105 200,115 195,125 
           C 190,135 170,135 160,130 
           L 70,130 
           C 55,130 45,125 50,115 Z"
        fill="url(#cloudNight)"/>

  <!-- KROPLE NOCNEGO DESZCZU – MAŁE, RZADKIE -->
  <g>
    <path class="rainDropNight d1" d="M85 135 C85 135 82.5 140 82.5 142 C82.5 144 83.5 145 85 145 C86.5 145 87.5 144 87.5 142 C87.5 140 85 135 85 135Z" fill="url(#rainNight)"/>
    <path class="rainDropNight d2" d="M110 132 C110 132 107.5 137 107.5 139 C107.5 141 108.5 142 110 142 C111.5 142 112.5 141 112.5 139 C112.5 137 110 132 110 132Z" fill="url(#rainNight)"/>
    <path class="rainDropNight d3" d="M135 130 C135 130 132.5 135 132.5 137 C132.5 139 133.5 140 135 140 C136.5 140 137.5 139 137.5 137 C137.5 135 135 130 135 130Z" fill="url(#rainNight)"/>
    <path class="rainDropNight d4" d="M100 140 C100 140 97.5 145 97.5 147 C97.5 149 98.5 150 100 150 C101.5 150 102.5 149 102.5 147 C102.5 145 100 140 100 140Z" fill="url(#rainNight)"/>
    <path class="rainDropNight d5" d="M155 135 C155 135 152.5 140 152.5 142 C152.5 144 153.5 145 155 145 C156.5 145 157.5 144 157.5 142 C157.5 140 155 135 155 135Z" fill="url(#rainNight)"/>
    <path class="rainDropNight d6" d="M125 145 C125 145 122.5 150 122.5 152 C122.5 154 123.5 155 125 155 C126.5 155 127.5 154 127.5 152 C127.5 150 125 145 125 145Z" fill="url(#rainNight)"/>
  </g>

  <!-- WILGOTNA MGIEŁKA NOCNA NA DOLE -->
  <ellipse cx="115" cy="186" rx="70" ry="5" fill="#90CAF9" opacity="0.15" filter="url(#cloudShadowNight)"/>
</svg>