<svg width="233" height="200" viewBox="0 0 233 200" xmlns="http://www.w3.org/2000/svg">
  <defs>
    <!-- TŁO: NOCNY, BURZOWY GRADIENT Z PRZEZROCZYSTOŚCIĄ -->
    <radialGradient id="bgStormNight" cx="50%" cy="40%" r="55%">
      <stop offset="0%" stop-color="#0D1B2A" stop-opacity="0.9"/>
      <stop offset="40%" stop-color="#1A237E" stop-opacity="0.6"/>
      <stop offset="70%" stop-color="#283593" stop-opacity="0.3"/>
      <stop offset="100%" stop-color="#64B5F6" stop-opacity="0"/>
    </radialGradient>

    <!-- CHMURA NOCNA: CIEMNA, BURZOWA, GRANATOWA -->
    <radialGradient id="cloudStormNight" cx="30%" cy="25%" r="80%">
      <stop offset="0%" stop-color="#5A6A82"/>
      <stop offset="45%" stop-color="#3A4A62"/>
      <stop offset="80%" stop-color="#2A3A52"/>
      <stop offset="100%" stop-color="#1A2A3A"/>
    </radialGradient>

    <!-- KROPLA DESZCZU NOCNA -->
    <linearGradient id="rainDropNight" x1="0" y1="0" x2="0" y2="1">
      <stop offset="0%" stop-color="#B0C4DE" stop-opacity="0.9"/>
      <stop offset="100%" stop-color="#607D8B" stop-opacity="0.5"/>
    </linearGradient>

    <!-- FILTRY -->
    <filter id="cloudShadowNight" x="-20%" y="-20%" width="140%" height="140%">
      <feDropShadow dx="0" dy="5" stdDeviation="6" flood-color="#0A1128" flood-opacity="0.7"/>
    </filter>
    <filter id="lightningGlowNight" x="-50%" y="-50%" width="200%" height="200%">
      <feGaussianBlur stdDeviation="5"/>
    </filter>
    <filter id="rainBlurNight" x="-50%" y="-50%" width="200%" height="200%">
      <feGaussianBlur stdDeviation="0.1"/>
    </filter>
  </defs>

  <style>
    .bgLayerNight {
      animation: bgPulseNight 8s ease-in-out infinite;
    }
    .cloudMoveNight {
      animation: cloudFloatNight 6s ease-in-out infinite;
    }
    /* Błyskawica – szybsze miganie (ochłodzona) */
    .lightningNight {
      animation: flashNight 0.2s steps(2, start) infinite;
    }
    .lightningGlowNight {
      animation: flashGlowNight 0.2s steps(2, start) infinite;
    }
    /* Krople deszczu */
    .rainDropNight {
      animation: fallRainNight 2.5s ease-in infinite;
    }
    .twinkleStar { animation: twinkle 3s ease-in-out infinite; }
    .twinkleStarSlow { animation: twinkle 5s ease-in-out infinite; }

    .r1 { animation-delay: 0.0s; }
    .r2 { animation-delay: 0.8s; }
    .r3 { animation-delay: 1.6s; }
    .r4 { animation-delay: 0.3s; }
    .r5 { animation-delay: 1.1s; }
    .r6 { animation-delay: 1.9s; }

    @keyframes bgPulseNight {
      0%,100% { opacity: 0.85; }
      50% { opacity: 1; }
    }
    @keyframes cloudFloatNight {
      0%,100% { transform: translateX(0) translateY(0); }
      50% { transform: translateX(-4px) translateY(-2px); }
    }
    @keyframes flashNight {
      0% { opacity: 1; }
      50% { opacity: 0.2; }
      100% { opacity: 1; }
    }
    @keyframes flashGlowNight {
      0% { opacity: 0.7; }
      50% { opacity: 0.05; }
      100% { opacity: 0.7; }
    }
    @keyframes fallRainNight {
      0% { transform: translateY(-20px) translateX(0); opacity: 0; }
      20% { opacity: 0.8; }
      80% { opacity: 0.7; }
      100% { transform: translateY(50px) translateX(-6px); opacity: 0; }
    }
    @keyframes twinkle {
      0%,100% { opacity: 0.2; transform: scale(0.8); }
      50% { opacity: 1; transform: scale(1.2); }
    }
  </style>

  <!-- TŁO NOCNE -->
  <rect width="233" height="200" fill="url(#bgStormNight)" class="bgLayerNight"/>

  <!-- GWIAZDY -->
  <g fill="#FFFFFF">
    <circle cx="25" cy="30" r="1.2" class="twinkleStar" style="animation-delay: 0s"/>
    <circle cx="60" cy="15" r="0.8" class="twinkleStarSlow" style="animation-delay: 0.5s"/>
    <circle cx="100" cy="45" r="1" class="twinkleStar" style="animation-delay: 1.2s"/>
    <circle cx="160" cy="20" r="1.3" class="twinkleStar" style="animation-delay: 2s"/>
    <circle cx="210" cy="30" r="0.9" class="twinkleStarSlow" style="animation-delay: 0.8s"/>
    <circle cx="195" cy="65" r="1.1" class="twinkleStar" style="animation-delay: 1.5s"/>
    <circle cx="35" cy="80" r="0.7" class="twinkleStar" style="animation-delay: 2.5s"/>
    <circle cx="15" cy="130" r="1" class="twinkleStarSlow" style="animation-delay: 0.3s"/>
    <circle cx="50" cy="170" r="0.9" class="twinkleStar" style="animation-delay: 1.8s"/>
    <circle cx="90" cy="185" r="1.2" class="twinkleStar" style="animation-delay: 2.2s"/>
    <circle cx="140" cy="170" r="0.8" class="twinkleStarSlow" style="animation-delay: 0.6s"/>
    <circle cx="180" cy="185" r="1" class="twinkleStar" style="animation-delay: 1.1s"/>
    <circle cx="215" cy="140" r="1.3" class="twinkleStar" style="animation-delay: 2.8s"/>
    <circle cx="175" cy="105" r="0.9" class="twinkleStarSlow" style="animation-delay: 1.4s"/>
    <circle cx="55" cy="105" r="0.6" class="twinkleStar" style="animation-delay: 3s"/>
    <circle cx="135" cy="55" r="1.1" class="twinkleStar" style="animation-delay: 0.9s"/>
    <circle cx="80" cy="65" r="0.8" class="twinkleStarSlow" style="animation-delay: 1.7s"/>
    <circle cx="200" cy="95" r="0.7" class="twinkleStar" style="animation-delay: 2.3s"/>
  </g>

  <!-- BŁYSKAWICA NOCNA (ochłodzona, biało-niebieska) -->
  <g class="lightningNight">
    <!-- Poświata -->
    <path d="M 115,70 L 128,100 L 105,108 L 135,140 L 100,148 L 140,190" 
          fill="none" stroke="#A0D0FF" stroke-width="8" stroke-linecap="round" stroke-linejoin="round" filter="url(#lightningGlowNight)" class="lightningGlowNight"/>
    <!-- Główny zygzak -->
    <path d="M 115,70 L 128,100 L 105,108 L 135,140 L 100,148 L 140,190" 
          fill="none" stroke="#80B0F0" stroke-width="5" stroke-linecap="round" stroke-linejoin="round"/>
    <!-- Wewnętrzny błysk -->
    <path d="M 115,70 L 128,100 L 105,108 L 135,140 L 100,148 L 140,190" 
          fill="none" stroke="#FFFFFF" stroke-width="2" stroke-linecap="round" stroke-linejoin="round"/>
  </g>

  <!-- CHMURA NOCNA (ciemna, burzowa) -->
  <g class="cloudMoveNight" filter="url(#cloudShadowNight)">
    <path d="M 40,115 
             C 40,95 60,82 78,88 
             C 88,68 120,60 138,75 
             C 152,68 175,76 182,96 
             C 198,98 205,110 198,124 
             C 192,136 170,138 158,132 
             L 65,134 
             C 48,136 38,130 40,115 Z" 
          fill="url(#cloudStormNight)"/>
    <!-- Delikatne rozjaśnienie na krawędzi chmury (nocne) -->
    <path d="M 70,105 C 80,88 105,82 125,90 C 135,85 152,90 158,104 C 165,100 175,106 172,118 C 168,126 148,128 135,124 L 85,126 C 73,127 66,120 70,105 Z" 
          fill="#D0D8F0" opacity="0.08"/>
  </g>

  <!-- KROPLE NOCNEGO DESZCZU (6 sztuk) -->
  <g filter="url(#rainBlurNight)">
    <path class="rainDropNight r1" d="M 90,135 C 90,135 86,142 86,145 C 86,148 88,150 90,150 C 92,150 94,148 94,145 C 94,142 90,135 90,135 Z" fill="url(#rainDropNight)"/>
    <path class="rainDropNight r2" d="M 120,140 C 120,140 116,147 116,150 C 116,153 118,155 120,155 C 122,155 124,153 124,150 C 124,147 120,140 120,140 Z" fill="url(#rainDropNight)"/>
    <path class="rainDropNight r3" d="M 150,138 C 150,138 146,145 146,148 C 146,151 148,153 150,153 C 152,153 154,151 154,148 C 154,145 150,138 150,138 Z" fill="url(#rainDropNight)"/>
    <path class="rainDropNight r4" d="M 105,148 C 105,148 101,155 101,158 C 101,161 103,163 105,163 C 107,163 109,161 109,158 C 109,155 105,148 105,148 Z" fill="url(#rainDropNight)"/>
    <path class="rainDropNight r5" d="M 135,145 C 135,145 131,152 131,155 C 131,158 133,160 135,160 C 137,160 139,158 139,155 C 139,152 135,145 135,145 Z" fill="url(#rainDropNight)"/>
    <path class="rainDropNight r6" d="M 80,150 C 80,150 76,157 76,160 C 76,163 78,165 80,165 C 82,165 84,163 84,160 C 84,157 80,150 80,150 Z" fill="url(#rainDropNight)"/>
  </g>

  <!-- MGIEŁKA NOCNA PRZY PODŁOŻU -->
  <ellipse cx="115" cy="188" rx="80" ry="6" fill="#90CAF9" opacity="0.1" filter="url(#lightningGlowNight)"/>
</svg>